<svg style="vertical-align: -0.717ex; min-width: 18.633ex;" xmlns="http://www.w3.org/2000/svg" width="100%" height="2.565ex" role="img" focusable="false" xmlns:xlink="http://www.w3.org/1999/xlink"><defs><style>svg a{fill:blue;stroke:blue}[data-mml-node="merror"]>g{fill:red;stroke:red}[data-mml-node="merror"]>rect[data-background]{fill:yellow;stroke:none}[data-frame],[data-line]{stroke-width:70px;fill:none}.mjx-dashed{stroke-dasharray:140}.mjx-dotted{stroke-linecap:round;stroke-dasharray:0,140}use[data-c]{stroke-width:3px}</style><path id="MJX-1-MM-I-1D438" d="M763 653C766 680 761 680 736 680L231 680C211 680 201 680 201 660C201 649 210 649 229 649C266 649 294 649 294 631C294 627 294 625 289 607L157 78C147 39 145 31 66 31C49 31 38 31 38 12C38 0 47 0 66 0L585 0C608 0 609 1 616 17L708 233C710 238 713 247 713 247C713 247 713 258 701 258C692 258 690 252 688 246C623 98 586 31 415 31L269 31C255 31 253 31 247 32C237 33 234 34 234 42C234 45 234 47 239 65L307 338L406 338C491 338 491 317 491 292C491 285 491 273 484 243C482 238 481 235 481 232C481 227 485 221 494 221C502 221 505 226 509 241L566 475C566 481 561 486 554 486C545 486 543 480 540 468C519 392 501 369 409 369L315 369L375 610C384 645 385 649 429 649L570 649C692 649 722 620 722 538C722 514 722 512 718 485C718 479 717 472 717 467C717 462 720 455 729 455C740 455 741 461 743 480Z"></path><path id="MJX-1-MM-N-3D" d="M722 347C722 358 713 367 702 367L76 367C65 367 56 358 56 347C56 336 65 327 76 327L702 327C713 327 722 336 722 347ZM722 153C722 164 713 173 702 173L76 173C65 173 56 164 56 153C56 142 65 133 76 133L702 133C713 133 722 142 722 153Z"></path><path id="MJX-1-MM-I-1D45A" d="M848 143C848 153 839 153 836 153C826 153 826 150 821 135C806 82 774 11 719 11C702 11 695 21 695 44C695 69 704 93 713 115C732 167 774 278 774 335C774 400 734 442 659 442C584 442 533 398 496 345C495 358 492 392 464 416C439 437 407 442 382 442C292 442 243 378 226 355C221 412 179 442 134 442C88 442 69 403 60 385C42 350 29 291 29 288C29 278 41 278 41 278C51 278 52 279 58 301C75 372 95 420 131 420C147 420 162 412 162 374C162 353 159 342 146 290L88 59C85 44 79 21 79 16C79-2 93-11 108-11C120-11 138-3 145 17C146 19 158 66 164 91L186 181C192 203 198 225 203 248L216 298C231 329 284 420 379 420C424 420 433 383 433 350C433 325 426 297 418 267L390 151C380 114 379 108 370 75C366 55 357 21 357 16C357-2 371-11 386-11C417-11 423 14 431 46L491 287C494 300 547 420 656 420C699 420 710 386 710 350C710 293 668 179 648 126C639 102 635 91 635 71C635 24 670-11 717-11C811-11 848 135 848 143Z"></path><path id="MJX-1-MM-I-1D450" d="M430 107C430 113 424 120 418 120C413 120 411 118 405 110C326 11 217 11 205 11C142 11 115 60 115 120C115 161 135 258 169 320C200 377 255 420 310 420C344 420 382 407 396 380C380 380 366 380 352 366C336 351 334 334 334 327C334 303 352 292 371 292C400 292 427 316 427 356C427 405 380 442 309 442C174 442 41 299 41 158C41 68 99-11 203-11C346-11 430 95 430 107Z"></path><path id="MJX-1-MM-N-32" d="M449 174L424 174C419 144 412 100 402 85C395 77 329 77 307 77L127 77L233 180C389 318 449 372 449 472C449 586 359 666 237 666C124 666 50 574 50 485C50 429 100 429 103 429C120 429 155 441 155 482C155 508 137 534 102 534C94 534 92 534 89 533C112 598 166 635 224 635C315 635 358 554 358 472C358 392 308 313 253 251L61 37C50 26 50 24 50 0L421 0Z"></path><path id="MJX-1-MM-N-20" d=""></path><path id="MJX-1-MM-N-28" d="M332-238C332-235 330-232 328-230C224-152 155 48 155 208L155 292C155 452 224 652 328 730C330 732 332 735 332 738C332 743 327 748 322 748C320 748 318 747 316 746C206 663 101 463 101 292L101 208C101 37 206-163 316-246C318-247 320-248 322-248C327-248 332-243 332-238Z"></path><path id="MJX-1-MM-N-31" d="M419 0L419 31L387 31C297 31 294 42 294 79L294 640C294 664 294 666 271 666C209 602 121 602 89 602L89 571C109 571 168 571 220 597L220 79C220 43 217 31 127 31L95 31L95 0C130 3 217 3 257 3C297 3 384 3 419 0Z"></path><path id="MJX-1-MM-N-29" d="M288 208L288 292C288 463 183 663 73 746C71 747 69 748 67 748C62 748 57 743 57 738C57 735 59 732 61 730C165 652 234 452 234 292L234 208C234 48 165-152 61-230C59-232 57-235 57-238C57-243 62-248 67-248C69-248 71-247 73-246C183-163 288 37 288 208Z"></path></defs><g stroke="currentColor" fill="currentColor" stroke-width="0" transform="scale(0.0181,-0.0181) translate(0, -817)"><g data-mml-node="math" data-latex="\begin{equation}
  E = mc^2 \tag{1}
\end{equation}"><g data-mml-node="mtable" data-latex-item="{equation}" data-latex="\begin{equation}
  E = mc^2  \tag{1}
\end{equation}" transform="translate(2078,0) translate(-2078,0)"><g transform="translate(0 817) matrix(1 0 0 -1 0 0) scale(55.25)"><svg data-table="true" preserveAspectRatio="xMidYMid" viewBox="2039.9 -817 1 1133.9"><g transform="matrix(1 0 0 -1 0 0)"><g data-mml-node="mlabeledtr" transform="translate(0,-67)"><g data-mml-node="mtd"><g data-mml-node="mi" data-latex="E"><use data-c="1D438" xlink:href="#MJX-1-MM-I-1D438"></use></g><g data-mml-node="mo" data-latex="=" transform="translate(1041.8,0)"><use data-c="3D" xlink:href="#MJX-1-MM-N-3D"></use></g><g data-mml-node="mi" data-latex="m" transform="translate(2097.6,0)"><use data-c="1D45A" xlink:href="#MJX-1-MM-I-1D45A"></use></g><g data-mml-node="msup" data-latex="\tag{1}" transform="translate(2975.6,0)"><g data-mml-node="mi" data-latex="c"><use data-c="1D450" xlink:href="#MJX-1-MM-I-1D450"></use></g><g data-mml-node="mn" transform="translate(466,413) scale(0.707)" data-latex="{1}"><use data-c="32" xlink:href="#MJX-1-MM-N-32"></use><use data-c="20" xlink:href="#MJX-1-MM-N-20" transform="translate(500,0)"></use></g></g></g></g></g></svg><svg data-labels="true" preserveAspectRatio="xMaxYMid" viewBox="1278 -817 1 1133.9"><g data-labels="true" transform="matrix(1 0 0 -1 0 0)"><g data-mml-node="mtd" id="mjx-eqn:1" transform="translate(0,681)"><text data-id-align="true"></text><g data-idbox="true" transform="translate(0,-748)"><g data-mml-node="mtext" data-latex="\text{(1)}"><use data-c="28" xlink:href="#MJX-1-MM-N-28"></use><use data-c="31" xlink:href="#MJX-1-MM-N-31" transform="translate(389,0)"></use><use data-c="29" xlink:href="#MJX-1-MM-N-29" transform="translate(889,0)"></use></g></g></g></g></svg></g></g></g></g></svg>
